<svg id="svg" version="1.1" xmlns="http://www.w3.org/2000/svg" xmlns:xlink="http://www.w3.org/1999/xlink" width="400" height="400" viewBox="0, 0, 400,400"><g id="svgg"><path id="path0" d="M281.733 109.333 L 261.201 129.867 266.938 129.867 L 272.675 129.867 273.125 128.598 C 274.387 125.046,278.817 123.043,282.635 124.299 C 290.280 126.814,288.495 138.684,280.462 138.747 C 276.792 138.775,272.800 135.830,272.800 133.095 C 272.800 132.887,270.659 132.800,265.530 132.800 L 258.261 132.800 253.625 137.441 C 250.324 140.747,249.037 142.205,249.153 142.508 C 249.301 142.892,251.365 142.933,270.658 142.933 L 292.000 142.933 292.000 130.955 L 292.000 118.976 290.733 118.555 C 283.149 116.033,285.287 104.097,293.301 104.222 C 301.757 104.353,303.949 116.317,295.957 118.711 L 294.933 119.018 294.933 130.976 L 294.933 142.933 298.634 142.933 C 301.427 142.933,302.408 142.844,302.635 142.571 C 303.034 142.090,302.933 89.022,302.533 88.889 C 302.386 88.840,293.026 98.040,281.733 109.333 M291.162 107.775 C 287.341 109.991,289.022 116.000,293.463 116.000 C 295.985 116.000,297.595 114.472,297.810 111.874 C 298.106 108.313,294.291 105.961,291.162 107.775 M277.829 127.509 C 274.008 129.724,275.689 135.733,280.129 135.733 C 282.651 135.733,284.262 134.205,284.477 131.608 C 284.772 128.046,280.958 125.694,277.829 127.509 M274.046 198.623 L 247.353 225.316 247.245 228.791 L 247.137 232.267 258.635 232.267 L 270.133 232.267 270.133 269.046 L 270.133 305.825 271.133 306.154 C 278.846 308.692,277.042 320.544,268.933 320.613 C 260.739 320.683,258.121 309.881,265.492 306.416 C 266.135 306.114,266.782 305.867,266.930 305.867 C 267.111 305.867,267.200 294.165,267.200 270.533 L 267.200 235.200 257.200 235.200 L 247.200 235.200 247.200 290.000 L 247.200 344.800 250.337 344.800 L 253.475 344.800 253.925 343.531 C 255.187 339.980,259.617 337.977,263.435 339.232 C 271.080 341.748,269.295 353.617,261.262 353.680 C 257.592 353.709,253.600 350.764,253.600 348.028 C 253.600 347.829,252.558 347.733,250.400 347.733 L 247.200 347.733 247.200 364.408 C 247.200 379.455,247.242 381.099,247.627 381.247 C 247.938 381.367,253.493 375.973,268.027 361.440 L 288.000 341.468 288.000 276.383 L 288.000 211.297 286.600 210.853 C 278.889 208.406,280.930 196.362,289.035 196.488 C 297.403 196.619,299.685 208.353,291.846 210.940 L 290.933 211.241 290.933 274.884 L 290.933 338.528 295.628 333.864 C 298.482 331.028,300.518 328.782,300.822 328.133 C 301.427 326.841,301.639 172.487,301.036 172.114 C 300.860 172.006,289.859 182.811,274.046 198.623 M286.896 200.042 C 283.075 202.258,284.755 208.267,289.196 208.267 C 291.718 208.267,293.328 206.739,293.544 204.141 C 293.839 200.579,290.025 198.228,286.896 200.042 M266.362 309.375 C 263.560 311.000,263.583 315.451,266.401 317.035 C 270.377 319.270,274.626 315.034,272.530 310.926 C 271.510 308.928,268.458 308.160,266.362 309.375 M258.629 342.442 C 254.808 344.658,256.489 350.667,260.929 350.667 C 263.451 350.667,265.062 349.139,265.277 346.541 C 265.572 342.979,261.758 340.628,258.629 342.442 " stroke="none" fill="#fca4a4" fill-rule="evenodd"></path><path id="path1" d="M133.108 36.805 L 114.617 55.467 123.393 55.467 L 132.169 55.467 132.761 54.036 C 135.992 46.241,147.325 48.494,147.331 56.933 C 147.339 65.951,134.989 67.552,132.421 58.867 C 132.293 58.433,131.561 58.400,121.940 58.400 L 111.596 58.400 105.408 64.600 C 101.377 68.639,99.077 71.146,98.810 71.791 C 98.170 73.340,98.185 333.534,98.826 333.780 C 99.129 333.896,100.587 332.609,103.892 329.308 L 108.534 324.672 108.467 209.625 L 108.400 94.578 107.207 94.180 C 99.549 91.627,101.680 79.487,109.790 79.470 C 118.862 79.452,120.616 91.757,111.933 94.502 C 111.490 94.643,111.467 100.291,111.467 208.190 L 111.467 321.729 118.000 315.200 L 124.533 308.671 124.533 240.202 L 124.533 171.733 181.964 171.733 L 239.394 171.733 239.845 170.554 C 242.914 162.517,254.525 164.609,254.531 173.200 C 254.539 182.218,242.189 183.819,239.621 175.133 C 239.491 174.691,236.586 174.667,183.475 174.667 L 127.467 174.667 127.467 240.198 L 127.467 305.729 133.467 299.733 L 139.467 293.738 139.467 245.269 L 139.467 196.800 177.151 196.800 L 214.835 196.800 215.428 195.370 C 218.659 187.574,229.991 189.827,229.998 198.267 C 230.005 207.284,217.656 208.886,215.088 200.200 C 214.958 199.759,212.992 199.733,178.675 199.733 L 142.400 199.733 142.400 245.264 L 142.400 290.794 146.961 286.264 C 153.298 279.969,152.521 285.531,152.527 246.467 L 152.533 213.333 192.333 213.327 C 230.699 213.322,232.172 213.304,233.200 212.821 C 234.740 212.098,286.541 160.220,286.314 159.627 C 286.164 159.237,280.371 159.200,219.342 159.200 L 152.533 159.200 152.533 121.067 L 152.533 82.933 142.132 82.933 L 131.731 82.933 131.799 109.630 L 131.867 136.326 133.231 136.835 C 140.849 139.677,138.542 151.452,130.366 151.464 C 121.994 151.476,119.580 140.388,127.194 136.893 L 128.800 136.156 128.800 108.078 L 128.800 80.000 140.668 80.000 L 152.536 80.000 152.468 49.137 C 152.408 21.945,152.352 18.266,152.000 18.208 C 151.774 18.171,143.561 26.256,133.108 36.805 M138.275 52.980 C 134.554 54.268,135.073 60.911,138.910 61.101 C 142.263 61.267,144.000 59.852,144.000 56.955 C 144.000 53.745,141.360 51.911,138.275 52.980 M108.399 83.116 C 106.597 83.740,105.432 85.683,105.718 87.589 C 106.540 93.073,114.319 92.444,114.193 86.903 C 114.124 83.847,111.410 82.074,108.399 83.116 M128.675 139.913 C 124.954 141.201,125.473 147.845,129.310 148.034 C 132.663 148.200,134.400 146.786,134.400 143.888 C 134.400 140.678,131.760 138.845,128.675 139.913 M245.475 169.246 C 241.754 170.534,242.273 177.178,246.110 177.367 C 249.463 177.533,251.200 176.119,251.200 173.222 C 251.200 170.011,248.560 168.178,245.475 169.246 M220.941 194.313 C 217.221 195.601,217.740 202.245,221.576 202.434 C 224.930 202.600,226.667 201.186,226.667 198.288 C 226.667 195.078,224.027 193.245,220.941 194.313 " stroke="none" fill="#fc6c2c" fill-rule="evenodd"></path><path id="path2" d="M137.693 49.537 C 137.525 49.645,138.511 49.733,139.884 49.733 C 141.258 49.733,142.176 49.652,141.924 49.552 C 141.302 49.305,138.074 49.294,137.693 49.537 M135.733 50.459 C 134.117 51.469,131.802 54.824,132.346 55.368 C 132.420 55.442,132.618 55.084,132.787 54.572 C 133.259 53.144,134.558 51.524,135.930 50.654 C 136.613 50.221,137.058 49.869,136.919 49.871 C 136.780 49.874,136.247 50.138,135.733 50.459 M143.333 50.308 C 150.329 53.985,147.369 64.585,139.447 64.225 C 138.311 64.174,137.521 64.220,137.691 64.328 C 138.424 64.795,141.721 64.534,143.079 63.901 C 147.360 61.908,148.830 56.504,146.168 52.541 C 145.432 51.445,143.438 49.855,142.827 49.877 C 142.665 49.883,142.893 50.077,143.333 50.308 M137.398 53.065 C 136.481 53.624,135.454 55.059,135.489 55.733 C 135.501 55.953,135.650 55.827,135.822 55.453 C 136.387 54.218,137.271 53.327,138.310 52.946 C 138.938 52.716,139.128 52.564,138.800 52.553 C 138.507 52.543,137.876 52.774,137.398 53.065 M139.936 52.722 C 140.268 52.786,140.748 52.783,141.003 52.717 C 141.258 52.650,140.987 52.598,140.400 52.601 C 139.813 52.604,139.605 52.658,139.936 52.722 M142.349 53.340 C 145.092 55.012,144.336 60.076,141.200 61.039 C 140.595 61.225,140.536 61.291,140.961 61.309 C 143.305 61.410,145.164 57.175,143.872 54.677 C 143.451 53.863,142.256 52.799,141.764 52.801 C 141.600 52.802,141.864 53.044,142.349 53.340 M135.489 57.733 C 135.448 59.349,137.393 61.366,138.933 61.305 C 139.515 61.282,139.492 61.253,138.755 61.077 C 138.290 60.967,137.554 60.589,137.118 60.238 C 136.444 59.694,136.178 59.166,135.589 57.200 C 135.545 57.053,135.500 57.293,135.489 57.733 M132.544 59.168 C 132.506 60.482,135.709 64.000,136.942 64.000 C 137.068 64.000,136.623 63.653,135.954 63.228 C 134.627 62.387,133.578 61.161,132.954 59.722 C 132.734 59.215,132.550 58.965,132.544 59.168 M107.827 79.671 C 107.658 79.779,108.644 79.867,110.018 79.867 C 111.392 79.867,112.310 79.785,112.058 79.685 C 111.435 79.439,108.207 79.428,107.827 79.671 M105.867 80.592 C 104.281 81.584,102.644 83.771,102.677 84.856 C 102.683 85.045,102.867 84.785,103.087 84.278 C 103.712 82.839,104.761 81.613,106.087 80.772 C 106.757 80.347,107.191 80.002,107.052 80.004 C 106.913 80.007,106.380 80.271,105.867 80.592 M113.467 80.442 C 114.601 81.038,115.961 82.375,116.544 83.467 C 116.819 83.980,117.048 84.268,117.055 84.107 C 117.095 83.120,113.950 79.975,112.960 80.011 C 112.799 80.017,113.027 80.211,113.467 80.442 M107.531 83.199 C 106.623 83.752,105.595 85.180,105.611 85.867 C 105.617 86.087,105.781 85.907,105.977 85.467 C 106.517 84.253,107.291 83.502,108.433 83.083 C 109.064 82.852,109.259 82.697,108.933 82.686 C 108.640 82.677,108.009 82.907,107.531 83.199 M110.070 82.855 C 110.401 82.919,110.881 82.917,111.136 82.850 C 111.391 82.783,111.120 82.731,110.533 82.734 C 109.947 82.737,109.738 82.791,110.070 82.855 M112.450 83.453 C 113.412 84.040,113.881 84.779,114.152 86.133 C 114.321 86.979,114.342 86.996,114.369 86.320 C 114.423 85.024,112.894 82.931,111.897 82.934 C 111.734 82.935,111.982 83.168,112.450 83.453 M117.268 86.298 C 117.504 89.692,115.995 92.472,113.215 93.767 C 112.473 94.112,112.021 94.396,112.211 94.397 C 115.292 94.421,118.661 88.218,117.350 84.933 C 117.230 84.633,117.194 85.229,117.268 86.298 M102.488 87.067 C 102.489 88.093,102.537 88.481,102.595 87.927 C 102.652 87.374,102.651 86.534,102.592 86.061 C 102.534 85.587,102.486 86.040,102.488 87.067 M114.051 88.276 C 113.787 89.608,113.166 90.381,111.898 90.956 C 111.294 91.231,110.992 91.458,111.227 91.461 C 112.481 91.478,114.595 88.994,114.340 87.804 C 114.279 87.524,114.163 87.715,114.051 88.276 M105.613 88.133 C 105.607 88.427,105.840 89.058,106.132 89.536 C 106.727 90.512,108.127 91.470,108.933 91.454 C 109.241 91.448,109.025 91.286,108.424 91.072 C 107.851 90.868,107.153 90.472,106.874 90.193 C 106.595 89.913,106.199 89.216,105.995 88.642 C 105.781 88.042,105.619 87.826,105.613 88.133 M102.933 90.063 C 102.933 90.204,103.294 90.818,103.734 91.426 C 104.512 92.500,106.485 94.133,107.003 94.133 C 107.145 94.133,106.677 93.743,105.963 93.267 C 105.250 92.790,104.277 91.816,103.800 91.103 C 103.323 90.390,102.933 89.922,102.933 90.063 M126.133 137.392 C 123.811 138.844,122.652 141.036,122.711 143.867 L 122.749 145.733 122.921 143.600 C 123.155 140.690,124.126 138.985,126.354 137.572 C 127.023 137.147,127.458 136.802,127.319 136.804 C 127.180 136.807,126.647 137.071,126.133 137.392 M133.733 137.242 C 140.729 140.918,137.769 151.518,129.847 151.159 C 128.711 151.107,127.921 151.153,128.091 151.262 C 128.824 151.728,132.121 151.467,133.479 150.835 C 137.760 148.841,139.230 143.437,136.568 139.474 C 135.832 138.378,133.838 136.788,133.227 136.811 C 133.065 136.817,133.293 137.011,133.733 137.242 M127.798 139.999 C 126.881 140.558,125.854 141.992,125.889 142.667 C 125.901 142.887,126.050 142.760,126.222 142.386 C 126.787 141.151,127.671 140.261,128.710 139.880 C 129.338 139.649,129.528 139.497,129.200 139.486 C 128.907 139.477,128.276 139.707,127.798 139.999 M130.336 139.655 C 130.668 139.719,131.148 139.717,131.403 139.650 C 131.658 139.583,131.387 139.531,130.800 139.534 C 130.213 139.537,130.005 139.591,130.336 139.655 M132.749 140.274 C 135.492 141.945,134.736 147.010,131.600 147.973 C 130.995 148.159,130.936 148.224,131.361 148.243 C 133.705 148.343,135.564 144.109,134.272 141.610 C 133.851 140.796,132.656 139.733,132.164 139.734 C 132.000 139.735,132.264 139.978,132.749 140.274 M125.889 144.667 C 125.848 146.283,127.793 148.299,129.333 148.238 C 129.915 148.215,129.892 148.186,129.155 148.011 C 128.690 147.900,127.954 147.522,127.518 147.171 C 126.844 146.628,126.578 146.099,125.989 144.133 C 125.945 143.987,125.900 144.227,125.889 144.667 M122.944 146.101 C 122.906 147.415,126.109 150.933,127.342 150.933 C 127.468 150.933,127.023 150.586,126.354 150.161 C 125.027 149.320,123.978 148.094,123.354 146.655 C 123.134 146.148,122.950 145.899,122.944 146.101 M244.893 165.804 C 244.725 165.912,245.711 166.000,247.084 166.000 C 248.458 166.000,249.376 165.918,249.124 165.819 C 248.502 165.572,245.274 165.561,244.893 165.804 M242.555 167.000 C 241.267 167.854,239.991 169.685,239.626 171.200 C 239.538 171.567,239.713 171.329,240.015 170.672 C 240.814 168.933,241.774 167.780,243.154 166.905 C 243.823 166.481,244.256 166.133,244.116 166.133 C 243.975 166.133,243.273 166.523,242.555 167.000 M250.533 166.575 C 257.529 170.252,254.569 180.852,246.647 180.492 C 245.511 180.440,244.721 180.487,244.891 180.595 C 245.624 181.062,248.921 180.800,250.279 180.168 C 254.560 178.174,256.030 172.771,253.368 168.808 C 252.632 167.711,250.638 166.122,250.027 166.144 C 249.865 166.150,250.093 166.344,250.533 166.575 M244.598 169.332 C 243.681 169.891,242.654 171.326,242.689 172.000 C 242.701 172.220,242.850 172.094,243.022 171.719 C 243.587 170.484,244.471 169.594,245.510 169.213 C 246.138 168.982,246.328 168.831,246.000 168.820 C 245.707 168.810,245.076 169.040,244.598 169.332 M247.136 168.989 C 247.468 169.052,247.948 169.050,248.203 168.983 C 248.458 168.916,248.187 168.864,247.600 168.867 C 247.013 168.870,246.805 168.925,247.136 168.989 M249.549 169.607 C 252.292 171.279,251.536 176.343,248.400 177.306 C 247.795 177.492,247.736 177.558,248.161 177.576 C 250.505 177.677,252.364 173.442,251.072 170.944 C 250.651 170.129,249.456 169.066,248.964 169.068 C 248.800 169.068,249.064 169.311,249.549 169.607 M242.689 174.000 C 242.648 175.616,244.593 177.632,246.133 177.572 C 246.715 177.549,246.692 177.520,245.955 177.344 C 245.490 177.233,244.754 176.856,244.318 176.505 C 243.644 175.961,243.378 175.433,242.789 173.467 C 242.745 173.320,242.700 173.560,242.689 174.000 M239.744 175.434 C 239.706 176.748,242.909 180.267,244.142 180.267 C 244.268 180.267,243.823 179.919,243.154 179.495 C 241.827 178.653,240.778 177.427,240.154 175.988 C 239.934 175.481,239.750 175.232,239.744 175.434 M220.360 190.871 C 220.191 190.979,221.177 191.067,222.551 191.067 C 223.925 191.067,224.843 190.985,224.591 190.885 C 223.968 190.639,220.741 190.628,220.360 190.871 M218.400 191.792 C 216.783 192.803,214.469 196.157,215.013 196.702 C 215.086 196.775,215.285 196.417,215.454 195.906 C 215.925 194.477,217.224 192.857,218.597 191.987 C 219.279 191.554,219.724 191.202,219.586 191.204 C 219.447 191.207,218.913 191.471,218.400 191.792 M226.000 191.642 C 232.996 195.318,230.036 205.918,222.114 205.559 C 220.978 205.507,220.187 205.553,220.357 205.662 C 221.091 206.128,224.388 205.867,225.746 205.235 C 230.027 203.241,231.496 197.837,228.835 193.874 C 228.098 192.778,226.104 191.188,225.493 191.211 C 225.332 191.217,225.560 191.411,226.000 191.642 M220.064 194.399 C 219.147 194.958,218.121 196.392,218.156 197.067 C 218.167 197.287,218.317 197.160,218.488 196.786 C 219.054 195.551,219.938 194.661,220.976 194.280 C 221.605 194.049,221.794 193.897,221.467 193.886 C 221.173 193.877,220.542 194.107,220.064 194.399 M222.603 194.055 C 222.935 194.119,223.415 194.117,223.670 194.050 C 223.925 193.983,223.653 193.931,223.067 193.934 C 222.480 193.937,222.271 193.991,222.603 194.055 M225.016 194.674 C 227.758 196.345,227.002 201.410,223.867 202.373 C 223.261 202.559,223.203 202.624,223.627 202.643 C 225.972 202.743,227.831 198.509,226.539 196.010 C 226.118 195.196,224.923 194.133,224.431 194.134 C 224.267 194.135,224.531 194.378,225.016 194.674 M218.155 199.067 C 218.115 200.683,220.059 202.699,221.600 202.638 C 222.181 202.615,222.158 202.586,221.421 202.411 C 220.957 202.300,220.220 201.922,219.785 201.571 C 219.110 201.028,218.844 200.499,218.255 198.533 C 218.211 198.387,218.166 198.627,218.155 199.067 M215.210 200.501 C 215.173 201.815,218.375 205.333,219.609 205.333 C 219.735 205.333,219.290 204.986,218.621 204.561 C 217.294 203.720,216.245 202.494,215.621 201.055 C 215.401 200.548,215.216 200.299,215.210 200.501 M232.933 212.943 C 232.493 213.144,232.320 213.315,232.549 213.321 C 232.778 213.328,233.198 213.157,233.482 212.942 C 234.114 212.464,233.979 212.464,232.933 212.943 " stroke="none" fill="#fc6b23" fill-rule="evenodd"></path><path id="path3" d="M285.929 111.467 C 285.929 111.980,285.983 112.190,286.050 111.933 C 286.118 111.677,286.118 111.257,286.050 111.000 C 285.983 110.743,285.929 110.953,285.929 111.467 M281.662 203.733 C 281.662 204.247,281.717 204.457,281.784 204.200 C 281.851 203.943,281.851 203.523,281.784 203.267 C 281.717 203.010,281.662 203.220,281.662 203.733 M261.129 313.067 C 261.129 313.580,261.183 313.790,261.250 313.533 C 261.318 313.277,261.318 312.857,261.250 312.600 C 261.183 312.343,261.129 312.553,261.129 313.067 " stroke="none" fill="#fc9c9c" fill-rule="evenodd"></path><path id="path4" d="" stroke="none" fill="#fc8c48" fill-rule="evenodd"></path></g></svg>